<svg width="50" height="26" viewBox="0 0 50 26" fill="none" xmlns="http://www.w3.org/2000/svg">
<g clip-path="url(#clip0_411_5462)">
<path d="M13.8469 10.4948C12.1208 9.46321 10.1289 8.95149 8.11405 9.02205C5.91047 9.03689 3.7286 9.45446 1.67814 10.2538L1.84039 12.5298C3.62559 11.672 5.58916 11.2409 7.57322 11.2713C8.54856 11.2511 9.51958 11.4053 10.4396 11.7265C11.097 11.946 11.6782 12.3452 12.1162 12.8779C12.4008 13.2774 12.6368 13.7088 12.8193 14.1631C12.9304 14.5194 12.994 14.8884 13.0086 15.261V17.2692C11.3414 15.8416 9.17895 15.1118 6.9783 15.2342C5.17913 15.1254 3.39864 15.6467 1.94855 16.7069C1.33555 17.1541 0.839117 17.7396 0.500493 18.4149C0.16187 19.0901 -0.00917796 19.8357 0.00155443 20.5895C-0.0174861 21.3375 0.138618 22.0796 0.457639 22.7579C0.77666 23.4361 1.24993 24.032 1.84039 24.4989C3.22189 25.5314 4.92486 26.0525 6.6538 25.9716C7.93551 25.9964 9.20779 25.7499 10.3856 25.2486C11.3797 24.8348 12.2468 24.1701 12.9004 23.3207C12.9736 24.0713 13.1092 24.8147 13.3061 25.5432H16.0102V15.1003C16.0779 14.2135 15.9146 13.3243 15.5358 12.5179C15.157 11.7115 14.5755 11.0149 13.8469 10.4948ZM12.8734 21.2054C12.3914 22.1156 11.6353 22.8549 10.7101 23.3207C9.75711 23.8375 8.68671 24.1047 7.60026 24.0972C6.43174 24.1441 5.28357 23.784 4.35526 23.0797C3.95547 22.7584 3.63718 22.3489 3.42588 21.8839C3.21457 21.4189 3.11612 20.9115 3.13839 20.4021C3.12213 19.9204 3.22441 19.4421 3.4364 19.0082C3.64839 18.5744 3.96374 18.1981 4.35526 17.9119C5.35287 17.2302 6.55279 16.9002 7.76251 16.9747C8.70321 16.9241 9.64416 17.0696 10.5245 17.4017C11.4049 17.7338 12.2051 18.2451 12.8734 18.9026V21.2054Z" fill="black"/>
<path d="M19.5547 2.41016V25.5451H22.6645V2.41016H19.5547Z" fill="black"/>
<path d="M31.8846 21.4212C31.6191 22.3699 31.2087 23.2729 30.6678 24.0989C30.5366 24.3056 30.358 24.4788 30.1466 24.6044C29.9352 24.73 29.6968 24.8045 29.4509 24.8218C29.3691 24.8331 29.2859 24.8281 29.2061 24.8072C29.1262 24.7863 29.0514 24.7498 28.986 24.7C28.9205 24.6501 28.8658 24.5879 28.8249 24.5169C28.784 24.4458 28.7578 24.3675 28.7478 24.2863C28.6789 23.7897 28.7347 23.2839 28.91 22.8136L35.6975 0C34.828 0.403154 33.9228 0.725845 32.9933 0.963955C31.965 1.20086 30.9123 1.31768 29.8565 1.31205L29.6402 2.00824C30.6948 2.00824 31.3438 2.1689 31.6142 2.51699C31.7345 2.76804 31.7969 3.04243 31.7969 3.32029C31.7969 3.59815 31.7345 3.87253 31.6142 4.12358L26.4492 21.4212C26.2849 21.929 26.1583 22.4481 26.0707 22.9743C25.9764 23.4607 25.9764 23.9605 26.0707 24.447C26.093 24.6557 26.1571 24.8579 26.2593 25.0418C26.3614 25.2257 26.4995 25.3876 26.6656 25.518C27.1423 25.8128 27.7 25.9532 28.261 25.9197C28.8133 25.9291 29.3601 25.8105 29.8578 25.5734C30.3554 25.3363 30.7903 24.9872 31.1275 24.5541C31.6035 23.9973 31.9786 23.3632 32.2362 22.6797L33.0474 20.3502H32.2362L31.8846 21.4212Z" fill="black"/>
<path d="M49.7864 22.9745C48.7937 23.3534 47.7404 23.5529 46.6766 23.5636C44.2158 23.5636 42.9989 22.4122 42.9989 20.1094V11.6481H49.9216V9.42562H42.9989V4.07031H39.8621V9.42562H35.9141V11.6481H39.8621V20.6718C39.8621 24.242 41.8632 26.0271 45.8654 26.0271C47.2829 26.0434 48.6895 25.7794 50.0027 25.2505L49.7864 22.9745Z" fill="black"/>
</g>
<defs>
<clipPath id="clip0_411_5462">
<rect width="50" height="26" fill="white"/>
</clipPath>
</defs>
</svg>
